<?xml version="1.0" encoding="UTF-8" standalone="no"?>
<!-- Created with Inkscape (http://www.inkscape.org/) -->

<svg
   version="1.1"
   id="svg2"
   width="648"
   height="449"
   viewBox="0 0 648 449"
   sodipodi:docname="c-cloud LOGO.svg"
   inkscape:version="1.2.2 (732a01da63, 2022-12-09)"
   xml:space="preserve"
   xmlns:inkscape="http://www.inkscape.org/namespaces/inkscape"
   xmlns:sodipodi="http://sodipodi.sourceforge.net/DTD/sodipodi-0.dtd"
   xmlns="http://www.w3.org/2000/svg"
   xmlns:svg="http://www.w3.org/2000/svg"><defs
     id="defs6" /><sodipodi:namedview
     id="namedview4"
     pagecolor="#ffffff"
     bordercolor="#000000"
     borderopacity="0.25"
     inkscape:showpageshadow="2"
     inkscape:pageopacity="0.0"
     inkscape:pagecheckerboard="0"
     inkscape:deskcolor="#d1d1d1"
     showgrid="false"
     inkscape:zoom="0.89532294"
     inkscape:cx="464.07836"
     inkscape:cy="237.34453"
     inkscape:window-width="1920"
     inkscape:window-height="991"
     inkscape:window-x="-9"
     inkscape:window-y="-9"
     inkscape:window-maximized="1"
     inkscape:current-layer="g6625" /><g
     inkscape:groupmode="layer"
     inkscape:label="Image"
     id="g8"
     style="display:inline"><g
       id="g6625"
       transform="translate(7.8977847,-1.5795569)"><g
         id="g17790"
         transform="translate(-7.8977847,7.1080062)"><g
           id="g6557"
           style="display:inline"><g
             id="g5535"
             transform="translate(-15.572468,-0.26818869)"
             style="display:inline"><path
               id="ellipse1455"
               style="display:inline;fill:#25aae2;fill-opacity:1;stroke:none;stroke-width:9.21057;stroke-dasharray:none"
               d="M 352.24219,49.755859 A 149.26814,154.00679 0 0 0 238.51367,104.61914 c 3.74344,3.33349 7.27244,7.03463 10.5586,11.15234 7.25784,9.09449 12.29717,17.83168 15.11914,26.2129 2.91622,8.49931 4.29721,18.2238 4.14257,29.17382 0.0454,1.51043 -0.15572,2.8326 -0.60546,3.96485 -0.23737,1.1561 -0.72257,2.12247 -1.45508,2.90039 -0.52015,0.80176 -1.31201,1.62629 -2.375,2.47461 -2.2441,1.79089 -4.7934,2.47311 -7.64844,2.04492 -2.64267,-0.40434 -4.97874,-1.63389 -7.00586,-3.68945 -1.90901,-2.14984 -2.88464,-4.94894 -2.92773,-8.39454 0.29199,-7.38631 -0.44265,-14.24157 -2.20508,-20.56836 -1.66819,-6.20867 -5.56661,-13.15292 -11.69336,-20.83007 -2.73494,-3.42704 -5.73531,-6.47646 -8.99609,-9.15625 a 66,66 0 0 0 -7.9375,-5.49024 c -0.98579,-0.56756 -1.98783,-1.11152 -3.01172,-1.625 -1.0732,-0.53819 -2.15507,-1.0507 -3.24219,-1.54687 a 66,66 0 0 0 -9.61133,-3.65235 c -0.84345,-0.2543 -1.69032,-0.49756 -2.54492,-0.71679 a 66,66 0 0 0 -14.83984,-1.8086 66,66 0 0 0 -66,66 66,66 0 0 0 1.96874,15.58594 115,107.50311 0 0 0 -68.82812,98.3457 115,107.50311 0 0 0 88.81641,104.31446 h 378.3457 v -0.17188 a 126,126 0 0 0 121.05859,-125.64648 126,126 0 0 0 -126,-126 126,126 0 0 0 -23.51367,2.49804 149.26814,154.00679 0 0 0 -135.83984,-90.234371 z" /><circle
               style="display:inline;fill:#03045e;fill-opacity:1;stroke:none;stroke-width:9.21057;stroke-dasharray:none"
               id="circle2045"
               cx="511.59531"
               cy="263.49255"
               r="126" /><circle
               style="display:inline;fill:#20e8f4;fill-opacity:1;stroke:none;stroke-width:4.82458;stroke-dasharray:none"
               id="path168"
               cx="182.23447"
               cy="171.06531"
               r="66" /><text
               xml:space="preserve"
               style="font-style:normal;font-variant:normal;font-weight:normal;font-stretch:normal;font-size:226.667px;font-family:Comfortaa;-inkscape-font-specification:'Comfortaa @wght=700';font-variation-settings:'wght' 700;display:inline;fill:#ffffff;stroke:#ffffff;stroke-width:10;stroke-dasharray:none;stroke-opacity:1"
               x="411.80963"
               y="354.11212"
               id="text222"><tspan
                 sodipodi:role="line"
                 id="tspan220"
                 x="411.80963"
                 y="354.11212"
                 style="font-style:normal;font-variant:normal;font-weight:normal;font-stretch:normal;font-size:226.667px;font-family:Comfortaa;-inkscape-font-specification:'Comfortaa @wght=700';font-variant-ligatures:normal;font-variant-caps:normal;font-variant-numeric:normal;font-variant-east-asian:normal;font-variation-settings:'wght' 700;fill:#ffffff;stroke:#ffffff;stroke-width:10;stroke-dasharray:none;stroke-opacity:1">C</tspan></text></g></g><g
           id="g6588"
           transform="matrix(0.15229567,-0.36721646,0.36455807,0.15340622,32.00855,320.43869)"
           style="display:inline;fill:#ffffff"><path
             style="fill:#ffffff;fill-opacity:1;stroke-width:0.129616"
             d="m 371.65643,190.71863 c 0.12475,-0.0326 0.3289,-0.0326 0.45366,0 0.12475,0.0326 0.0227,0.0593 -0.22683,0.0593 -0.24951,0 -0.35159,-0.0267 -0.22683,-0.0593 z m 9.05098,-15.41063 c 0.006,-0.151 0.0369,-0.18171 0.0783,-0.0783 0.0374,0.0936 0.0328,0.20536 -0.0102,0.24843 -0.0431,0.0431 -0.0737,-0.0335 -0.0681,-0.17012 z m -19.30262,-1.99826 c 0,-0.17822 0.0294,-0.25113 0.0654,-0.16202 0.036,0.0891 0.036,0.23493 0,0.32404 -0.036,0.0891 -0.0654,0.0162 -0.0654,-0.16202 z m 0.005,-6.41601 c 0.003,-0.21387 0.0317,-0.28566 0.0645,-0.15956 0.0329,0.12612 0.0307,0.3011 -0.005,0.38885 -0.0355,0.0878 -0.0624,-0.0154 -0.0598,-0.22929 z m 0.50343,-5.84354 c 0.006,-0.15101 0.0369,-0.18171 0.0783,-0.0783 0.0374,0.0936 0.0328,0.20537 -0.0102,0.24844 -0.0431,0.0431 -0.0737,-0.0335 -0.0681,-0.17012 z m 134.67153,-46.53232 c 0.006,-0.15101 0.0369,-0.18171 0.0783,-0.0783 0.0374,0.0936 0.0328,0.20537 -0.0102,0.24844 -0.0431,0.0431 -0.0737,-0.0335 -0.0681,-0.17012 z m -6.77459,-40.582904 c 0.0936,-0.03744 0.20537,-0.03284 0.24844,0.01023 0.0431,0.04307 -0.0335,0.07371 -0.17012,0.06808 -0.15101,-0.0062 -0.18171,-0.03693 -0.0783,-0.07831 z m 1.29617,-0.129617 c 0.0936,-0.03744 0.20536,-0.03284 0.24843,0.01023 0.0431,0.04307 -0.0335,0.07371 -0.17012,0.06808 -0.151,-0.0062 -0.18171,-0.03693 -0.0783,-0.07831 z m 1.42578,-0.129616 c 0.0936,-0.03744 0.20536,-0.03284 0.24843,0.01023 0.0431,0.04307 -0.0335,0.07371 -0.17012,0.06808 -0.151,-0.0062 -0.18171,-0.03693 -0.0783,-0.07831 z m 1.67691,-0.126917 c 0.0891,-0.03596 0.23493,-0.03596 0.32404,0 0.0891,0.03596 0.0162,0.06538 -0.16202,0.06538 -0.17822,0 -0.25113,-0.02942 -0.16202,-0.06538 z m 2.27075,-0.133597 c 0.12612,-0.03286 0.3011,-0.0307 0.38885,0.0048 0.0878,0.03551 -0.0154,0.06239 -0.22929,0.05975 -0.21387,-0.0026 -0.28566,-0.03169 -0.15956,-0.06455 z m 11.53518,-0.0032 c 0.19703,-0.02979 0.48867,-0.029 0.64809,0.0018 0.15942,0.03077 -0.002,0.05514 -0.35823,0.05417 -0.35644,-0.001 -0.48687,-0.02615 -0.28986,-0.05594 z m -7.00106,-0.132392 c 0.40991,-0.02572 1.08067,-0.02572 1.49059,0 0.40991,0.02572 0.0745,0.04677 -0.7453,0.04677 -0.81982,0 -1.15521,-0.02105 -0.74529,-0.04677 z m 56.38783,-10.467958 c 0.001,-0.356445 0.0262,-0.48688 0.056,-0.289855 0.0298,0.197025 0.029,0.488662 -0.002,0.648083 -0.0308,0.15942 -0.0551,-0.0018 -0.0542,-0.358228 z M 489.80997,48.918982 c 0.0936,-0.03744 0.20536,-0.03284 0.24843,0.01023 0.0431,0.04307 -0.0335,0.0737 -0.17012,0.06808 -0.151,-0.0062 -0.18171,-0.03693 -0.0783,-0.07831 z m 1.42578,-0.129616 c 0.0936,-0.03744 0.20536,-0.03284 0.24843,0.01023 0.0431,0.04307 -0.0335,0.07371 -0.17012,0.06808 -0.151,-0.0062 -0.18171,-0.03693 -0.0783,-0.07831 z m 1.54729,-0.126917 c 0.0891,-0.03596 0.23493,-0.03596 0.32405,0 0.0891,0.03596 0.0162,0.06538 -0.16203,0.06538 -0.17822,0 -0.25113,-0.02942 -0.16202,-0.06538 z m -0.71042,-30.334241 c 0.12611,-0.03286 0.3011,-0.0307 0.38885,0.0048 0.0878,0.03551 -0.0154,0.06239 -0.2293,0.05975 -0.21386,-0.0026 -0.28566,-0.03169 -0.15955,-0.06455 z"
             id="path6596" /><path
             style="fill:#ffffff;fill-opacity:1;stroke-width:0.129616"
             d="m 380.5778,176.60417 c 0.006,-0.15101 0.0369,-0.18171 0.0783,-0.0783 0.0374,0.0936 0.0328,0.20537 -0.0102,0.24844 -0.0431,0.0431 -0.0737,-0.0335 -0.0681,-0.17012 z m -19.05363,-1.94425 c 0.006,-0.151 0.0369,-0.18171 0.0783,-0.0783 0.0374,0.0936 0.0328,0.20536 -0.0102,0.24843 -0.0431,0.0431 -0.0737,-0.0335 -0.0681,-0.17012 z m -0.11458,-1.93345 c 0.003,-0.21387 0.0317,-0.28566 0.0645,-0.15956 0.0329,0.12612 0.0307,0.3011 -0.005,0.38885 -0.0355,0.0878 -0.0624,-0.0154 -0.0598,-0.22929 z m 0,-5.18466 c 0.003,-0.21387 0.0317,-0.28566 0.0645,-0.15956 0.0329,0.12612 0.0307,0.3011 -0.005,0.38885 -0.0355,0.0878 -0.0624,-0.0154 -0.0598,-0.22929 z m 0.11458,-2.21428 c 0.006,-0.151 0.0369,-0.18171 0.0783,-0.0783 0.0374,0.0936 0.0328,0.20536 -0.0102,0.24843 -0.0431,0.0431 -0.0737,-0.0335 -0.0681,-0.17012 z m 146.43211,-33.32437 c 0.0936,-0.0375 0.20536,-0.0328 0.24843,0.0102 0.0431,0.0431 -0.0335,0.0737 -0.17012,0.0681 -0.151,-0.006 -0.18171,-0.0369 -0.0783,-0.0783 z m 1.68501,0 c 0.0936,-0.0375 0.20536,-0.0328 0.24844,0.0102 0.0431,0.0431 -0.0335,0.0737 -0.17013,0.0681 -0.151,-0.006 -0.18171,-0.0369 -0.0783,-0.0783 z m 6.50513,-2.68235 c 0,-0.0269 0.10207,-0.12898 0.22683,-0.22683 0.20558,-0.16122 0.21016,-0.15664 0.0489,0.0489 -0.16933,0.21591 -0.27577,0.28458 -0.27577,0.17789 z m -19.56187,-12.72908 c 0.006,-0.151 0.0369,-0.18171 0.0783,-0.0783 0.0374,0.0936 0.0328,0.20536 -0.0102,0.24843 -0.0431,0.0431 -0.0737,-0.0335 -0.0681,-0.17012 z m -82.96478,-0.62142 c 0,-0.0269 0.10207,-0.12898 0.22683,-0.22683 0.20558,-0.16122 0.21016,-0.15664 0.0489,0.0489 -0.16933,0.21591 -0.27577,0.28458 -0.27577,0.17789 z m 82.96478,-1.06359 c 0.006,-0.15101 0.0369,-0.18171 0.0783,-0.0783 0.0374,0.0936 0.0328,0.20537 -0.0102,0.24844 -0.0431,0.0431 -0.0737,-0.0335 -0.0681,-0.17012 z m -81.02053,-1.00189 c 0,-0.0223 0.18956,-0.21187 0.42125,-0.42125 l 0.42125,-0.3807 -0.38069,0.42126 c -0.35486,0.39267 -0.46181,0.48083 -0.46181,0.38069 z m 5.44389,-5.44389 c 0,-0.0223 0.18956,-0.21187 0.42125,-0.42125 l 0.42126,-0.3807 -0.3807,0.42125 c -0.35486,0.39268 -0.46181,0.48084 -0.46181,0.3807 z m 2.3331,-2.21187 c 0,-0.0269 0.10207,-0.12898 0.22683,-0.22683 0.20558,-0.16121 0.21016,-0.15664 0.0489,0.049 -0.16932,0.2159 -0.27576,0.28457 -0.27576,0.17788 z m -25.9233,-9.721235 c 0,-0.02691 0.10207,-0.128981 0.22683,-0.226829 0.20558,-0.161217 0.21016,-0.156641 0.0489,0.04894 -0.16932,0.215903 -0.27576,0.284573 -0.27576,0.177886 z m 1.94424,-2.089729 c 0.16744,-0.178223 0.33359,-0.324041 0.36923,-0.324041 0.0357,0 -0.0722,0.145818 -0.23961,0.324041 -0.16743,0.178223 -0.33358,0.324041 -0.36923,0.324041 -0.0356,0 0.0722,-0.145818 0.23961,-0.324041 z m 5.18466,-5.18466 c 0.16744,-0.178222 0.33359,-0.324041 0.36923,-0.324041 0.0356,0 -0.0722,0.145819 -0.23961,0.324041 -0.16743,0.178223 -0.33358,0.324042 -0.36923,0.324042 -0.0356,0 0.0722,-0.145819 0.23961,-0.324042 z M 548.80977,77.474215 c 0,-0.02691 0.10208,-0.128987 0.22683,-0.226828 0.20559,-0.161227 0.21016,-0.156642 0.0489,0.04894 -0.16933,0.215908 -0.27578,0.28457 -0.27578,0.17789 z m 1.74983,-1.895309 c 0.12903,-0.142578 0.26377,-0.259233 0.29941,-0.259233 0.0357,0 -0.0408,0.116655 -0.1698,0.259233 -0.12903,0.142578 -0.26377,0.259233 -0.29941,0.259233 -0.0356,0 0.0408,-0.116655 0.1698,-0.259233 z m 1.94424,-2.073864 c 0.12904,-0.142578 0.26377,-0.259233 0.29942,-0.259233 0.0356,0 -0.0408,0.116655 -0.1698,0.259233 -0.12903,0.142578 -0.26377,0.259233 -0.29941,0.259233 -0.0357,0 0.0408,-0.116655 0.16979,-0.259233 z m -58.67576,0.04107 c 0.0936,-0.03744 0.20536,-0.03284 0.24843,0.01023 0.0431,0.04307 -0.0335,0.07371 -0.17012,0.06808 -0.151,-0.0062 -0.18171,-0.03693 -0.0783,-0.07831 z m 2.00341,-0.130897 c 0.12612,-0.03286 0.3011,-0.0307 0.38885,0.0048 0.0878,0.03551 -0.0154,0.06239 -0.22929,0.05975 -0.21386,-0.0026 -0.28566,-0.03169 -0.15956,-0.06455 z m 13.41517,-0.0041 c 0.23297,-0.02885 0.58294,-0.02825 0.7777,0.0013 0.19477,0.02958 0.004,0.05318 -0.42358,0.05245 -0.42773,-7.78e-4 -0.58708,-0.02492 -0.35412,-0.05377 z m -10.11241,-0.129449 c 0.23169,-0.02875 0.61082,-0.02875 0.84251,0 0.23169,0.02875 0.0421,0.05228 -0.42125,0.05228 -0.46338,0 -0.65295,-0.02353 -0.42126,-0.05228 z m 4.47177,-6.48e-4 c 0.26734,-0.02796 0.70479,-0.02796 0.97213,0 0.26733,0.02796 0.0486,0.05084 -0.48607,0.05084 -0.53466,0 -0.75339,-0.02288 -0.48606,-0.05084 z m 49.66737,-20.158165 -0.3807,-0.421254 0.42126,0.380696 c 0.39267,0.354861 0.48084,0.461812 0.38069,0.461812 -0.0223,0 -0.21187,-0.189564 -0.42125,-0.421254 z M 491.6246,48.789366 c 0.0936,-0.03744 0.20536,-0.03284 0.24843,0.01023 0.0431,0.04307 -0.0335,0.07371 -0.17012,0.06808 -0.151,-0.0062 -0.18171,-0.03693 -0.0783,-0.07831 z m 1.68501,-0.129617 c 0.0936,-0.03744 0.20537,-0.03284 0.24844,0.01023 0.0431,0.04307 -0.0335,0.07371 -0.17012,0.06808 -0.15101,-0.0062 -0.18171,-0.03693 -0.0783,-0.07831 z m -0.0528,-0.462328 -0.24692,-0.291637 0.29164,0.246918 c 0.27406,0.232042 0.35064,0.336356 0.24692,0.336356 -0.0246,0 -0.15584,-0.131236 -0.29164,-0.291637 z m -2.8474,-2.851563 -0.3807,-0.421253 0.42126,0.380695 c 0.39267,0.354861 0.48084,0.461812 0.38069,0.461812 -0.0223,0 -0.21187,-0.189564 -0.42125,-0.421254 z m -2.01744,-2.138672 c -0.16122,-0.205579 -0.15664,-0.210164 0.0489,-0.04894 0.12476,0.09784 0.22683,0.199914 0.22683,0.226829 0,0.10668 -0.10644,0.03802 -0.27577,-0.177891 z m -1.29617,-1.425781 c -0.16121,-0.20558 -0.15664,-0.210164 0.0489,-0.04894 0.12475,0.09784 0.22683,0.199914 0.22683,0.226829 0,0.106679 -0.10645,0.03802 -0.27578,-0.177891 z m -6.19482,-11.255032 c 0.006,-0.150997 0.0369,-0.18171 0.0783,-0.07831 0.0375,0.09357 0.0328,0.205362 -0.0102,0.248432 -0.0431,0.04307 -0.0737,-0.03349 -0.0681,-0.170121 z m 0,-2.073864 c 0.006,-0.150997 0.0369,-0.18171 0.0783,-0.07831 0.0375,0.09357 0.0328,0.205362 -0.0102,0.248432 -0.0431,0.04307 -0.0737,-0.03349 -0.0681,-0.170121 z"
             id="path6594" /><path
             style="fill:#ffffff;fill-opacity:1;stroke-width:0.129616"
             d="m 366.62564,188.57209 -0.3807,-0.42126 0.42125,0.3807 c 0.23169,0.20938 0.42126,0.39895 0.42126,0.42125 0,0.10014 -0.10695,0.0119 -0.46181,-0.38069 z m 9.92381,0.25108 c 0,-0.0223 0.18957,-0.21187 0.42126,-0.42126 l 0.42125,-0.38069 -0.3807,0.42125 c -0.35486,0.39267 -0.46181,0.48084 -0.46181,0.3807 z m 124.36092,-60.00429 -0.51236,-0.55087 0.55087,0.51236 c 0.51231,0.4765 0.61043,0.58938 0.51236,0.58938 -0.0212,0 -0.26905,-0.24789 -0.55087,-0.55087 z m 15.6249,0.11308 c 0,-0.0269 0.10207,-0.12898 0.22683,-0.22683 0.20558,-0.16122 0.21016,-0.15664 0.0489,0.0489 -0.16933,0.21591 -0.27577,0.28458 -0.27577,0.17789 z m -110.69249,-4.01811 c 0,-0.0269 0.10207,-0.12898 0.22683,-0.22683 0.20558,-0.16122 0.21016,-0.15664 0.0489,0.0489 -0.16933,0.2159 -0.27577,0.28458 -0.27577,0.17789 z m 1.16655,-1.42578 c 0,-0.0269 0.10207,-0.12899 0.22683,-0.22683 0.20558,-0.16122 0.21016,-0.15664 0.0489,0.0489 -0.16932,0.2159 -0.27576,0.28457 -0.27576,0.17789 z m 0.64808,-0.7777 c 0,-0.0269 0.10207,-0.12898 0.22683,-0.22683 0.20558,-0.16122 0.21016,-0.15664 0.0489,0.0489 -0.16933,0.2159 -0.27577,0.28457 -0.27577,0.17789 z m 0.64808,-0.7777 c 0,-0.0269 0.10208,-0.12898 0.22683,-0.22683 0.20558,-0.16122 0.21017,-0.15664 0.0489,0.0489 -0.16933,0.2159 -0.27577,0.28458 -0.27577,0.17789 z m 0.7777,-0.90732 c 0,-0.0269 0.10208,-0.12898 0.22683,-0.22683 0.20558,-0.16121 0.21016,-0.15664 0.0489,0.049 -0.16933,0.2159 -0.27577,0.28457 -0.27577,0.17788 z m 0.7777,-0.90731 c 0,-0.0269 0.10207,-0.12898 0.22683,-0.22683 0.20558,-0.16122 0.21016,-0.15664 0.0489,0.0489 -0.16933,0.2159 -0.27577,0.28457 -0.27577,0.17789 z m 1.10174,-1.24722 c 0.12903,-0.14258 0.26377,-0.25924 0.29941,-0.25924 0.0356,0 -0.0408,0.11666 -0.16979,0.25924 -0.12903,0.14257 -0.26377,0.25923 -0.29941,0.25923 -0.0357,0 0.0408,-0.11666 0.16979,-0.25923 z m 1.03693,-1.16655 c 0.12904,-0.14258 0.26377,-0.25924 0.29941,-0.25924 0.0356,0 -0.0408,0.11666 -0.16979,0.25924 -0.12903,0.14258 -0.26377,0.25923 -0.29941,0.25923 -0.0356,0 0.0408,-0.11665 0.16979,-0.25923 z m 1.23136,-1.36098 c 0.16743,-0.17822 0.33358,-0.32404 0.36923,-0.32404 0.0356,0 -0.0722,0.14582 -0.23961,0.32404 -0.16744,0.17823 -0.33359,0.32405 -0.36923,0.32405 -0.0356,0 0.0722,-0.14582 0.23961,-0.32405 z m 1.74982,-1.87944 c 0.27845,-0.28515 0.53544,-0.51846 0.57108,-0.51846 0.0356,0 -0.16301,0.23331 -0.44146,0.51846 -0.27845,0.28516 -0.53543,0.51847 -0.57108,0.51847 -0.0356,0 0.16302,-0.23331 0.44146,-0.51847 z m 3.56446,-3.69407 c 0.6028,-0.60595 1.12518,-1.10174 1.16082,-1.10174 0.0356,0 -0.4284,0.49579 -1.03121,1.10174 -0.60281,0.60596 -1.12518,1.10174 -1.16082,1.10174 -0.0356,0 0.4284,-0.49578 1.03121,-1.10174 z m 3.69407,-3.56445 c 0.27844,-0.28516 0.53543,-0.51847 0.57107,-0.51847 0.0356,0 -0.16301,0.23331 -0.44146,0.51847 -0.27844,0.28516 -0.53543,0.51847 -0.57107,0.51847 -0.0357,0 0.16301,-0.23331 0.44146,-0.51847 z m 1.49059,-1.33672 c 0,-0.0223 0.18956,-0.21187 0.42125,-0.42125 l 0.42125,-0.3807 -0.38069,0.42125 c -0.35486,0.39268 -0.46181,0.48084 -0.46181,0.3807 z m -33.18183,-1.30455 c 0,-0.0269 0.10208,-0.12898 0.22683,-0.22683 0.20558,-0.16122 0.21017,-0.15664 0.0489,0.0489 -0.16933,0.2159 -0.27577,0.28458 -0.27577,0.17789 z m 34.86684,-0.2751 c 0.16743,-0.17822 0.33359,-0.32404 0.36923,-0.32404 0.0356,0 -0.0722,0.14582 -0.23961,0.32404 -0.16744,0.17822 -0.33359,0.32404 -0.36923,0.32404 -0.0356,0 0.0722,-0.14582 0.23961,-0.32404 z m 1.03693,-0.89145 c 0,-0.0269 0.10208,-0.12898 0.22683,-0.22683 0.20558,-0.16122 0.21017,-0.15664 0.0489,0.0489 -0.16933,0.21591 -0.27577,0.28458 -0.27577,0.17789 z m -34.73722,-0.25923 c 0,-0.0269 0.10207,-0.12898 0.22683,-0.22683 0.20558,-0.16122 0.21016,-0.15664 0.0489,0.0489 -0.16933,0.2159 -0.27577,0.28457 -0.27577,0.17789 z m 35.77415,-0.64809 c 0,-0.0269 0.10208,-0.12898 0.22683,-0.22682 0.20558,-0.16122 0.21017,-0.15665 0.0489,0.0489 -0.16933,0.2159 -0.27577,0.28457 -0.27577,0.17788 z m -35.12607,-0.12961 c 0,-0.0269 0.10208,-0.12898 0.22683,-0.22683 0.20558,-0.16122 0.21017,-0.15664 0.0489,0.0489 -0.16933,0.2159 -0.27577,0.28457 -0.27577,0.17789 z m 36.03339,-0.64809 c 0,-0.0269 0.10207,-0.12898 0.22683,-0.22682 0.20558,-0.16122 0.21016,-0.15665 0.0489,0.0489 -0.16933,0.2159 -0.27577,0.28457 -0.27577,0.17788 z m -35.3853,-0.12961 c 0,-0.0269 0.10207,-0.12898 0.22683,-0.22683 0.20557,-0.16122 0.21016,-0.15664 0.0489,0.0489 -0.16932,0.2159 -0.27576,0.28458 -0.27576,0.17789 z m 36.163,-0.51847 c 0,-0.0269 0.10207,-0.12898 0.22683,-0.22683 0.20558,-0.16121 0.21016,-0.15664 0.0489,0.0489 -0.16933,0.2159 -0.27577,0.28457 -0.27577,0.17788 z m -35.3853,-0.38885 c 0,-0.0269 0.10207,-0.12898 0.22682,-0.22683 0.20558,-0.16121 0.21017,-0.15664 0.0489,0.049 -0.16932,0.2159 -0.27576,0.28457 -0.27576,0.17788 z m 0.77769,-0.907313 c 0,-0.02691 0.10208,-0.128981 0.22683,-0.226828 0.20558,-0.161217 0.21017,-0.156642 0.0489,0.04894 -0.16933,0.215902 -0.27577,0.284573 -0.27577,0.177885 z m 36.16301,0 c 0,-0.02691 0.10207,-0.128981 0.22683,-0.226828 0.20558,-0.161217 0.21016,-0.156642 0.0489,0.04894 -0.16932,0.215902 -0.27576,0.284573 -0.27576,0.177885 z m -35.06127,-1.247221 c 0.12904,-0.142578 0.26377,-0.259233 0.29942,-0.259233 0.0356,0 -0.0408,0.116655 -0.1698,0.259233 -0.12903,0.142578 -0.26377,0.259233 -0.29941,0.259233 -0.0356,0 0.0408,-0.116655 0.16979,-0.259233 z m 1.10174,-1.231357 c 0.16744,-0.178223 0.33359,-0.324041 0.36923,-0.324041 0.0357,0 -0.0722,0.145818 -0.23961,0.324041 -0.16743,0.178223 -0.33358,0.324041 -0.36923,0.324041 -0.0356,0 0.0722,-0.145818 0.23961,-0.324041 z m 1.03694,-1.142297 c 0,-0.02231 0.18956,-0.211871 0.42125,-0.421254 l 0.42125,-0.380696 -0.38069,0.421253 c -0.35486,0.392673 -0.46181,0.480839 -0.46181,0.380697 z m 4.14772,-4.301596 c 1.24604,-1.247559 2.29468,-2.268288 2.33032,-2.268288 0.0356,0 -0.95467,1.020729 -2.2007,2.268288 -1.24603,1.247559 -2.29467,2.268289 -2.33032,2.268289 -0.0356,0 0.95467,-1.02073 2.2007,-2.268289 z m 3.62927,-3.475394 c 0,-0.02231 0.18956,-0.211871 0.42125,-0.421254 l 0.42125,-0.380696 -0.38069,0.421253 c -0.35486,0.392674 -0.46181,0.480839 -0.46181,0.380697 z M 539.607,87.84353 c 0,-0.02691 0.10208,-0.128981 0.22683,-0.226829 0.20559,-0.161217 0.21016,-0.156642 0.0489,0.04894 -0.16934,0.215902 -0.27578,0.284573 -0.27578,0.177886 z m 0.64809,-0.777699 c 0,-0.02691 0.10207,-0.128981 0.22682,-0.226829 0.20559,-0.161217 0.21016,-0.156641 0.0489,0.04894 -0.16933,0.215902 -0.27577,0.284573 -0.27577,0.177886 z M 407.39818,86.661116 c 0.16743,-0.178222 0.33358,-0.324041 0.36923,-0.324041 0.0356,0 -0.0722,0.145819 -0.23962,0.324041 -0.16743,0.178223 -0.33358,0.324042 -0.36923,0.324042 -0.0356,0 0.0722,-0.145819 0.23962,-0.324042 z m 133.6346,-0.502601 c 0,-0.02691 0.10208,-0.128981 0.22683,-0.226828 0.20559,-0.161217 0.21016,-0.156642 0.049,0.04894 -0.16933,0.215902 -0.27578,0.284573 -0.27578,0.177885 z M 408.62953,85.559376 c 0.12904,-0.142578 0.26377,-0.259233 0.29942,-0.259233 0.0356,0 -0.0408,0.116655 -0.1698,0.259233 -0.12903,0.142578 -0.26377,0.259233 -0.29941,0.259233 -0.0357,0 0.0408,-0.116655 0.16979,-0.259233 z M 541.81048,85.2512 c 0,-0.02691 0.10208,-0.128981 0.22683,-0.226829 0.20559,-0.161217 0.21016,-0.156641 0.0489,0.04894 -0.16934,0.215902 -0.27578,0.284573 -0.27578,0.177886 z M 409.66647,84.652061 c 0.12903,-0.142578 0.26376,-0.259233 0.29941,-0.259233 0.0356,0 -0.0408,0.116655 -0.1698,0.259233 -0.12903,0.142578 -0.26376,0.259233 -0.29941,0.259233 -0.0356,0 0.0408,-0.116655 0.1698,-0.259233 z m 132.92171,-0.308177 c 0,-0.02691 0.10208,-0.128981 0.22683,-0.226828 0.20559,-0.161217 0.21016,-0.156642 0.0489,0.04894 -0.16933,0.215902 -0.27577,0.284573 -0.27577,0.177885 z M 410.50897,83.955035 c 0,-0.02691 0.10208,-0.128981 0.22683,-0.226829 0.20558,-0.161217 0.21017,-0.156641 0.0489,0.04894 -0.16933,0.215903 -0.27577,0.284573 -0.27577,0.177886 z M 543.4955,83.306953 c 0,-0.02691 0.10207,-0.128982 0.22683,-0.226829 0.20558,-0.161217 0.21016,-0.156642 0.0489,0.04894 -0.16933,0.215902 -0.27577,0.284573 -0.27577,0.177886 z M 411.41629,83.177336 c 0,-0.02691 0.10207,-0.128981 0.22683,-0.226829 0.20558,-0.161217 0.21016,-0.156641 0.0489,0.04894 -0.16933,0.215903 -0.27577,0.284573 -0.27577,0.177886 z m 0.7777,-0.648082 c 0,-0.02691 0.10207,-0.128982 0.22683,-0.226829 0.20558,-0.161217 0.21016,-0.156642 0.0489,0.04894 -0.16932,0.215902 -0.27576,0.284573 -0.27576,0.177886 z m 132.40325,-0.469523 c 0.12903,-0.142578 0.26377,-0.259233 0.29941,-0.259233 0.0357,0 -0.0408,0.116655 -0.1698,0.259233 -0.12903,0.142578 -0.26376,0.259233 -0.29941,0.259233 -0.0356,0 0.0408,-0.116655 0.1698,-0.259233 z m -131.62555,-0.17856 c 0,-0.02691 0.10207,-0.128981 0.22683,-0.226829 0.20558,-0.161217 0.21016,-0.156641 0.0489,0.04894 -0.16932,0.215903 -0.27576,0.284573 -0.27576,0.177886 z m 132.72729,-1.052797 c 0.16742,-0.178223 0.33358,-0.324041 0.36922,-0.324041 0.0356,0 -0.0722,0.145818 -0.2396,0.324041 -0.16743,0.178223 -0.33359,0.324041 -0.36923,0.324041 -0.0356,0 0.0722,-0.145818 0.23961,-0.324041 z M 414.39747,80.714623 c 0,-0.02691 0.10207,-0.128982 0.22683,-0.226829 0.20558,-0.161217 0.21016,-0.156642 0.0489,0.04894 -0.16933,0.215902 -0.27577,0.284573 -0.27577,0.177886 z m 132.20882,-0.89893 c 0,-0.02231 0.18957,-0.211872 0.42126,-0.421255 l 0.42125,-0.380695 -0.3807,0.421254 c -0.35486,0.392673 -0.46181,0.480838 -0.46181,0.380696 z m 1.42579,-1.555399 c 0,-0.02231 0.18956,-0.211871 0.42125,-0.421254 l 0.42125,-0.380695 -0.38069,0.421254 c -0.35487,0.392668 -0.46181,0.480832 -0.46181,0.380695 z m 1.55539,-1.685014 c 0,-0.02231 0.18957,-0.211871 0.42126,-0.421254 l 0.42125,-0.380695 -0.3807,0.421253 c -0.35486,0.392668 -0.46181,0.480832 -0.46181,0.380696 z m 2.20348,-2.357347 c 0.24184,-0.249512 0.46887,-0.453658 0.50451,-0.453658 0.0356,0 -0.13305,0.204146 -0.37489,0.453658 -0.24184,0.249512 -0.46886,0.453657 -0.50451,0.453657 -0.0356,0 0.13306,-0.204145 0.37489,-0.453657 z m 1.74983,-1.879439 c 0.12903,-0.142579 0.26377,-0.259233 0.29941,-0.259233 0.0357,0 -0.0408,0.116654 -0.1698,0.259233 -0.12903,0.142578 -0.26377,0.259233 -0.29941,0.259233 -0.0357,0 0.0408,-0.116655 0.1698,-0.259233 z m 0.56673,-18.243522 c -0.16122,-0.20558 -0.15664,-0.210164 0.0489,-0.04894 0.12475,0.09784 0.22682,0.199914 0.22682,0.226829 0,0.106679 -0.10644,0.03802 -0.27577,-0.177891 z m -62.20224,-7.258524 -1.09888,-1.134144 1.13415,1.098878 c 0.62378,0.604384 1.13414,1.114748 1.13414,1.134144 0,0.09431 -0.1488,-0.04552 -1.16941,-1.098878 z m -2.92166,-3.045988 -0.3807,-0.421253 0.42126,0.380695 c 0.39267,0.354862 0.48083,0.461812 0.38069,0.461812 -0.0223,0 -0.21187,-0.189564 -0.42125,-0.421254 z m -1.42994,-1.555398 -0.24692,-0.291637 0.29163,0.246918 c 0.27407,0.232042 0.35064,0.336357 0.24692,0.336357 -0.0246,0 -0.15583,-0.131237 -0.29163,-0.291638 z m -1.16655,-1.296165 -0.24692,-0.291637 0.29164,0.246918 c 0.27406,0.232043 0.35063,0.336357 0.24692,0.336357 -0.0246,0 -0.15584,-0.131237 -0.29164,-0.291638 z m -0.84673,-0.972123 c -0.16122,-0.20558 -0.15665,-0.210164 0.0489,-0.04894 0.12475,0.09784 0.22683,0.199914 0.22683,0.226829 0,0.106679 -0.10644,0.03802 -0.27577,-0.177891 z m -1.7981,-17.854673 c 0.16743,-0.178222 0.33358,-0.324041 0.36923,-0.324041 0.0356,0 -0.0722,0.145819 -0.23961,0.324041 -0.16743,0.178223 -0.33358,0.324042 -0.36923,0.324042 -0.0356,0 0.0722,-0.145819 0.23961,-0.324042 z m 0.84251,-0.842507 c 0.12903,-0.142578 0.26377,-0.259233 0.29941,-0.259233 0.0357,0 -0.0408,0.116655 -0.16979,0.259233 -0.12904,0.142578 -0.26377,0.259233 -0.29942,0.259233 -0.0356,0 0.0408,-0.116655 0.1698,-0.259233 z"
             id="path6592" /><path
             style="display:inline;fill:#ffffff;fill-opacity:1;stroke-width:0.129616"
             d="m 370.78152,190.5943 c -1.69221,-0.35243 -3.16109,-1.09203 -4.06324,-2.04593 -0.4948,-0.52317 -0.95443,-1.29724 -1.93791,-3.26364 -2.3263,-4.65127 -2.49282,-5.09991 -2.83309,-7.63283 -0.48012,-3.57397 -0.63676,-7.05769 -0.46043,-10.24003 0.56418,-10.18199 2.12748,-16.97542 5.99723,-26.06145 1.16524,-2.73594 4.25087,-8.87895 5.92023,-11.78624 5.34839,-9.31457 12.60903,-19.58918 20.05919,-28.38602 10.30641,-12.169352 23.56176,-23.584699 37.13603,-31.981091 6.18395,-3.825095 13.81994,-7.728941 20.68727,-10.576226 12.4045,-5.143062 24.81842,-8.238631 38.53315,-9.60872 1.45253,-0.145107 2.9249,-0.263832 3.27189,-0.263832 0.34701,0 0.63092,-0.03749 0.63092,-0.0833 0,-0.04582 -1.09364,-1.198177 -2.43031,-2.5608 -2.80715,-2.86166 -5.55417,-5.91089 -6.66762,-7.401176 -1.07231,-1.435209 -2.64506,-4.301252 -3.09015,-5.631209 -1.34843,-4.029217 -0.35977,-8.237814 2.6532,-11.294209 1.4884,-1.509847 3.0899,-2.43732 5.19273,-3.007241 0.83537,-0.226407 1.38967,-0.280554 2.85156,-0.278559 1.88599,0.0026 2.71885,0.149409 4.04429,0.713025 0.58744,0.249806 0.99662,0.477383 3.45365,1.92088 0.55941,0.328653 2.07593,1.462242 3.37003,2.519084 3.81789,3.11792 11.55811,8.79566 15.76822,11.566581 4.99317,3.286294 9.89534,6.093309 15.6836,8.980527 5.46279,2.724878 8.70547,4.12155 12.89684,5.554871 3.58353,1.225462 5.81989,2.891919 7.68399,5.72587 3.11682,4.738424 2.93718,10.73144 -0.46479,15.504887 -0.35566,0.499024 -1.74084,2.073864 -3.0782,3.499646 -5.16751,5.509167 -9.26864,10.123696 -12.49875,14.06339 -4.72232,5.759716 -9.08461,12.531712 -12.10672,18.794392 -1.11376,2.30801 -3.32596,7.75907 -4.41859,10.88778 -0.89487,2.56247 -1.53736,3.92421 -2.38497,5.05505 -0.34733,0.46338 -0.77861,1.20874 -0.9584,1.65634 -1.31446,3.27256 -4.27379,5.88513 -7.67734,6.77778 -1.5616,0.40956 -3.74429,0.38914 -5.41385,-0.0507 -3.18286,-0.83842 -5.60657,-2.71034 -6.86403,-5.30137 -0.82045,-1.69057 -1.22077,-2.93289 -1.51943,-4.71532 -0.14214,-0.84832 -0.40026,-1.97984 -0.57358,-2.51451 -0.67187,-2.0725 -0.68373,-3.37398 -0.0721,-7.90661 0.76167,-5.64434 1.28997,-7.57031 3.46839,-12.644266 3.29708,-7.679596 7.7581,-15.121138 13.86578,-23.129883 l 1.43332,-1.879439 -6.30999,-0.166874 c -14.31424,-0.378558 -21.06678,0.200975 -31.50126,2.703577 -6.38552,1.531499 -14.26187,4.145974 -19.20083,6.373511 -10.15043,4.57799 -20.92446,11.259889 -28.92136,17.936624 -11.24632,9.38972 -21.85185,20.84397 -29.628,31.99905 -5.46684,7.84232 -10.63987,16.86937 -14.07566,24.56233 -2.81466,6.30221 -5.148,14.35408 -5.60701,19.34865 -0.22489,2.44707 -0.30155,2.8237 -0.9755,4.79246 -0.28675,0.83767 -0.68937,2.30558 -0.89471,3.262 -0.20534,0.95644 -0.53332,2.07923 -0.72885,2.49508 -0.723,1.53768 -2.75216,3.10723 -4.65932,3.60399 -0.70622,0.18395 -1.98011,0.24014 -2.58555,0.11405 z"
             id="path6590" /></g><g
           id="g6606"
           transform="matrix(-0.17538752,0.35528774,-0.3625005,-0.17189779,309.91587,27.256826)"
           style="display:inline;fill:#ffffff"><path
             style="fill:#ffffff;fill-opacity:1;stroke-width:0.129616"
             d="m 371.65643,190.71863 c 0.12475,-0.0326 0.3289,-0.0326 0.45366,0 0.12475,0.0326 0.0227,0.0593 -0.22683,0.0593 -0.24951,0 -0.35159,-0.0267 -0.22683,-0.0593 z m 9.05098,-15.41063 c 0.006,-0.151 0.0369,-0.18171 0.0783,-0.0783 0.0374,0.0936 0.0328,0.20536 -0.0102,0.24843 -0.0431,0.0431 -0.0737,-0.0335 -0.0681,-0.17012 z m -19.30262,-1.99826 c 0,-0.17822 0.0294,-0.25113 0.0654,-0.16202 0.036,0.0891 0.036,0.23493 0,0.32404 -0.036,0.0891 -0.0654,0.0162 -0.0654,-0.16202 z m 0.005,-6.41601 c 0.003,-0.21387 0.0317,-0.28566 0.0645,-0.15956 0.0329,0.12612 0.0307,0.3011 -0.005,0.38885 -0.0355,0.0878 -0.0624,-0.0154 -0.0598,-0.22929 z m 0.50343,-5.84354 c 0.006,-0.15101 0.0369,-0.18171 0.0783,-0.0783 0.0374,0.0936 0.0328,0.20537 -0.0102,0.24844 -0.0431,0.0431 -0.0737,-0.0335 -0.0681,-0.17012 z m 134.67153,-46.53232 c 0.006,-0.15101 0.0369,-0.18171 0.0783,-0.0783 0.0374,0.0936 0.0328,0.20537 -0.0102,0.24844 -0.0431,0.0431 -0.0737,-0.0335 -0.0681,-0.17012 z m -6.77459,-40.582904 c 0.0936,-0.03744 0.20537,-0.03284 0.24844,0.01023 0.0431,0.04307 -0.0335,0.07371 -0.17012,0.06808 -0.15101,-0.0062 -0.18171,-0.03693 -0.0783,-0.07831 z m 1.29617,-0.129617 c 0.0936,-0.03744 0.20536,-0.03284 0.24843,0.01023 0.0431,0.04307 -0.0335,0.07371 -0.17012,0.06808 -0.151,-0.0062 -0.18171,-0.03693 -0.0783,-0.07831 z m 1.42578,-0.129616 c 0.0936,-0.03744 0.20536,-0.03284 0.24843,0.01023 0.0431,0.04307 -0.0335,0.07371 -0.17012,0.06808 -0.151,-0.0062 -0.18171,-0.03693 -0.0783,-0.07831 z m 1.67691,-0.126917 c 0.0891,-0.03596 0.23493,-0.03596 0.32404,0 0.0891,0.03596 0.0162,0.06538 -0.16202,0.06538 -0.17822,0 -0.25113,-0.02942 -0.16202,-0.06538 z m 2.27075,-0.133597 c 0.12612,-0.03286 0.3011,-0.0307 0.38885,0.0048 0.0878,0.03551 -0.0154,0.06239 -0.22929,0.05975 -0.21387,-0.0026 -0.28566,-0.03169 -0.15956,-0.06455 z m 11.53518,-0.0032 c 0.19703,-0.02979 0.48867,-0.029 0.64809,0.0018 0.15942,0.03077 -0.002,0.05514 -0.35823,0.05417 -0.35644,-0.001 -0.48687,-0.02615 -0.28986,-0.05594 z m -7.00106,-0.132392 c 0.40991,-0.02572 1.08067,-0.02572 1.49059,0 0.40991,0.02572 0.0745,0.04677 -0.7453,0.04677 -0.81982,0 -1.15521,-0.02105 -0.74529,-0.04677 z m 56.38783,-10.467958 c 0.001,-0.356445 0.0262,-0.48688 0.056,-0.289855 0.0298,0.197025 0.029,0.488662 -0.002,0.648083 -0.0308,0.15942 -0.0551,-0.0018 -0.0542,-0.358228 z M 489.80997,48.918982 c 0.0936,-0.03744 0.20536,-0.03284 0.24843,0.01023 0.0431,0.04307 -0.0335,0.0737 -0.17012,0.06808 -0.151,-0.0062 -0.18171,-0.03693 -0.0783,-0.07831 z m 1.42578,-0.129616 c 0.0936,-0.03744 0.20536,-0.03284 0.24843,0.01023 0.0431,0.04307 -0.0335,0.07371 -0.17012,0.06808 -0.151,-0.0062 -0.18171,-0.03693 -0.0783,-0.07831 z m 1.54729,-0.126917 c 0.0891,-0.03596 0.23493,-0.03596 0.32405,0 0.0891,0.03596 0.0162,0.06538 -0.16203,0.06538 -0.17822,0 -0.25113,-0.02942 -0.16202,-0.06538 z m -0.71042,-30.334241 c 0.12611,-0.03286 0.3011,-0.0307 0.38885,0.0048 0.0878,0.03551 -0.0154,0.06239 -0.2293,0.05975 -0.21386,-0.0026 -0.28566,-0.03169 -0.15955,-0.06455 z"
             id="path6598" /><path
             style="fill:#ffffff;fill-opacity:1;stroke-width:0.129616"
             d="m 380.5778,176.60417 c 0.006,-0.15101 0.0369,-0.18171 0.0783,-0.0783 0.0374,0.0936 0.0328,0.20537 -0.0102,0.24844 -0.0431,0.0431 -0.0737,-0.0335 -0.0681,-0.17012 z m -19.05363,-1.94425 c 0.006,-0.151 0.0369,-0.18171 0.0783,-0.0783 0.0374,0.0936 0.0328,0.20536 -0.0102,0.24843 -0.0431,0.0431 -0.0737,-0.0335 -0.0681,-0.17012 z m -0.11458,-1.93345 c 0.003,-0.21387 0.0317,-0.28566 0.0645,-0.15956 0.0329,0.12612 0.0307,0.3011 -0.005,0.38885 -0.0355,0.0878 -0.0624,-0.0154 -0.0598,-0.22929 z m 0,-5.18466 c 0.003,-0.21387 0.0317,-0.28566 0.0645,-0.15956 0.0329,0.12612 0.0307,0.3011 -0.005,0.38885 -0.0355,0.0878 -0.0624,-0.0154 -0.0598,-0.22929 z m 0.11458,-2.21428 c 0.006,-0.151 0.0369,-0.18171 0.0783,-0.0783 0.0374,0.0936 0.0328,0.20536 -0.0102,0.24843 -0.0431,0.0431 -0.0737,-0.0335 -0.0681,-0.17012 z m 146.43211,-33.32437 c 0.0936,-0.0375 0.20536,-0.0328 0.24843,0.0102 0.0431,0.0431 -0.0335,0.0737 -0.17012,0.0681 -0.151,-0.006 -0.18171,-0.0369 -0.0783,-0.0783 z m 1.68501,0 c 0.0936,-0.0375 0.20536,-0.0328 0.24844,0.0102 0.0431,0.0431 -0.0335,0.0737 -0.17013,0.0681 -0.151,-0.006 -0.18171,-0.0369 -0.0783,-0.0783 z m 6.50513,-2.68235 c 0,-0.0269 0.10207,-0.12898 0.22683,-0.22683 0.20558,-0.16122 0.21016,-0.15664 0.0489,0.0489 -0.16933,0.21591 -0.27577,0.28458 -0.27577,0.17789 z m -19.56187,-12.72908 c 0.006,-0.151 0.0369,-0.18171 0.0783,-0.0783 0.0374,0.0936 0.0328,0.20536 -0.0102,0.24843 -0.0431,0.0431 -0.0737,-0.0335 -0.0681,-0.17012 z m -82.96478,-0.62142 c 0,-0.0269 0.10207,-0.12898 0.22683,-0.22683 0.20558,-0.16122 0.21016,-0.15664 0.0489,0.0489 -0.16933,0.21591 -0.27577,0.28458 -0.27577,0.17789 z m 82.96478,-1.06359 c 0.006,-0.15101 0.0369,-0.18171 0.0783,-0.0783 0.0374,0.0936 0.0328,0.20537 -0.0102,0.24844 -0.0431,0.0431 -0.0737,-0.0335 -0.0681,-0.17012 z m -81.02053,-1.00189 c 0,-0.0223 0.18956,-0.21187 0.42125,-0.42125 l 0.42125,-0.3807 -0.38069,0.42126 c -0.35486,0.39267 -0.46181,0.48083 -0.46181,0.38069 z m 5.44389,-5.44389 c 0,-0.0223 0.18956,-0.21187 0.42125,-0.42125 l 0.42126,-0.3807 -0.3807,0.42125 c -0.35486,0.39268 -0.46181,0.48084 -0.46181,0.3807 z m 2.3331,-2.21187 c 0,-0.0269 0.10207,-0.12898 0.22683,-0.22683 0.20558,-0.16121 0.21016,-0.15664 0.0489,0.049 -0.16932,0.2159 -0.27576,0.28457 -0.27576,0.17788 z m -25.9233,-9.721235 c 0,-0.02691 0.10207,-0.128981 0.22683,-0.226829 0.20558,-0.161217 0.21016,-0.156641 0.0489,0.04894 -0.16932,0.215903 -0.27576,0.284573 -0.27576,0.177886 z m 1.94424,-2.089729 c 0.16744,-0.178223 0.33359,-0.324041 0.36923,-0.324041 0.0357,0 -0.0722,0.145818 -0.23961,0.324041 -0.16743,0.178223 -0.33358,0.324041 -0.36923,0.324041 -0.0356,0 0.0722,-0.145818 0.23961,-0.324041 z m 5.18466,-5.18466 c 0.16744,-0.178222 0.33359,-0.324041 0.36923,-0.324041 0.0356,0 -0.0722,0.145819 -0.23961,0.324041 -0.16743,0.178223 -0.33358,0.324042 -0.36923,0.324042 -0.0356,0 0.0722,-0.145819 0.23961,-0.324042 z M 548.80977,77.474215 c 0,-0.02691 0.10208,-0.128987 0.22683,-0.226828 0.20559,-0.161227 0.21016,-0.156642 0.0489,0.04894 -0.16933,0.215908 -0.27578,0.28457 -0.27578,0.17789 z m 1.74983,-1.895309 c 0.12903,-0.142578 0.26377,-0.259233 0.29941,-0.259233 0.0357,0 -0.0408,0.116655 -0.1698,0.259233 -0.12903,0.142578 -0.26377,0.259233 -0.29941,0.259233 -0.0356,0 0.0408,-0.116655 0.1698,-0.259233 z m 1.94424,-2.073864 c 0.12904,-0.142578 0.26377,-0.259233 0.29942,-0.259233 0.0356,0 -0.0408,0.116655 -0.1698,0.259233 -0.12903,0.142578 -0.26377,0.259233 -0.29941,0.259233 -0.0357,0 0.0408,-0.116655 0.16979,-0.259233 z m -58.67576,0.04107 c 0.0936,-0.03744 0.20536,-0.03284 0.24843,0.01023 0.0431,0.04307 -0.0335,0.07371 -0.17012,0.06808 -0.151,-0.0062 -0.18171,-0.03693 -0.0783,-0.07831 z m 2.00341,-0.130897 c 0.12612,-0.03286 0.3011,-0.0307 0.38885,0.0048 0.0878,0.03551 -0.0154,0.06239 -0.22929,0.05975 -0.21386,-0.0026 -0.28566,-0.03169 -0.15956,-0.06455 z m 13.41517,-0.0041 c 0.23297,-0.02885 0.58294,-0.02825 0.7777,0.0013 0.19477,0.02958 0.004,0.05318 -0.42358,0.05245 -0.42773,-7.78e-4 -0.58708,-0.02492 -0.35412,-0.05377 z m -10.11241,-0.129449 c 0.23169,-0.02875 0.61082,-0.02875 0.84251,0 0.23169,0.02875 0.0421,0.05228 -0.42125,0.05228 -0.46338,0 -0.65295,-0.02353 -0.42126,-0.05228 z m 4.47177,-6.48e-4 c 0.26734,-0.02796 0.70479,-0.02796 0.97213,0 0.26733,0.02796 0.0486,0.05084 -0.48607,0.05084 -0.53466,0 -0.75339,-0.02288 -0.48606,-0.05084 z m 49.66737,-20.158165 -0.3807,-0.421254 0.42126,0.380696 c 0.39267,0.354861 0.48084,0.461812 0.38069,0.461812 -0.0223,0 -0.21187,-0.189564 -0.42125,-0.421254 z M 491.6246,48.789366 c 0.0936,-0.03744 0.20536,-0.03284 0.24843,0.01023 0.0431,0.04307 -0.0335,0.07371 -0.17012,0.06808 -0.151,-0.0062 -0.18171,-0.03693 -0.0783,-0.07831 z m 1.68501,-0.129617 c 0.0936,-0.03744 0.20537,-0.03284 0.24844,0.01023 0.0431,0.04307 -0.0335,0.07371 -0.17012,0.06808 -0.15101,-0.0062 -0.18171,-0.03693 -0.0783,-0.07831 z m -0.0528,-0.462328 -0.24692,-0.291637 0.29164,0.246918 c 0.27406,0.232042 0.35064,0.336356 0.24692,0.336356 -0.0246,0 -0.15584,-0.131236 -0.29164,-0.291637 z m -2.8474,-2.851563 -0.3807,-0.421253 0.42126,0.380695 c 0.39267,0.354861 0.48084,0.461812 0.38069,0.461812 -0.0223,0 -0.21187,-0.189564 -0.42125,-0.421254 z m -2.01744,-2.138672 c -0.16122,-0.205579 -0.15664,-0.210164 0.0489,-0.04894 0.12476,0.09784 0.22683,0.199914 0.22683,0.226829 0,0.10668 -0.10644,0.03802 -0.27577,-0.177891 z m -1.29617,-1.425781 c -0.16121,-0.20558 -0.15664,-0.210164 0.0489,-0.04894 0.12475,0.09784 0.22683,0.199914 0.22683,0.226829 0,0.106679 -0.10645,0.03802 -0.27578,-0.177891 z m -6.19482,-11.255032 c 0.006,-0.150997 0.0369,-0.18171 0.0783,-0.07831 0.0375,0.09357 0.0328,0.205362 -0.0102,0.248432 -0.0431,0.04307 -0.0737,-0.03349 -0.0681,-0.170121 z m 0,-2.073864 c 0.006,-0.150997 0.0369,-0.18171 0.0783,-0.07831 0.0375,0.09357 0.0328,0.205362 -0.0102,0.248432 -0.0431,0.04307 -0.0737,-0.03349 -0.0681,-0.170121 z"
             id="path6600" /><path
             style="fill:#ffffff;fill-opacity:1;stroke-width:0.129616"
             d="m 366.62564,188.57209 -0.3807,-0.42126 0.42125,0.3807 c 0.23169,0.20938 0.42126,0.39895 0.42126,0.42125 0,0.10014 -0.10695,0.0119 -0.46181,-0.38069 z m 9.92381,0.25108 c 0,-0.0223 0.18957,-0.21187 0.42126,-0.42126 l 0.42125,-0.38069 -0.3807,0.42125 c -0.35486,0.39267 -0.46181,0.48084 -0.46181,0.3807 z m 124.36092,-60.00429 -0.51236,-0.55087 0.55087,0.51236 c 0.51231,0.4765 0.61043,0.58938 0.51236,0.58938 -0.0212,0 -0.26905,-0.24789 -0.55087,-0.55087 z m 15.6249,0.11308 c 0,-0.0269 0.10207,-0.12898 0.22683,-0.22683 0.20558,-0.16122 0.21016,-0.15664 0.0489,0.0489 -0.16933,0.21591 -0.27577,0.28458 -0.27577,0.17789 z m -110.69249,-4.01811 c 0,-0.0269 0.10207,-0.12898 0.22683,-0.22683 0.20558,-0.16122 0.21016,-0.15664 0.0489,0.0489 -0.16933,0.2159 -0.27577,0.28458 -0.27577,0.17789 z m 1.16655,-1.42578 c 0,-0.0269 0.10207,-0.12899 0.22683,-0.22683 0.20558,-0.16122 0.21016,-0.15664 0.0489,0.0489 -0.16932,0.2159 -0.27576,0.28457 -0.27576,0.17789 z m 0.64808,-0.7777 c 0,-0.0269 0.10207,-0.12898 0.22683,-0.22683 0.20558,-0.16122 0.21016,-0.15664 0.0489,0.0489 -0.16933,0.2159 -0.27577,0.28457 -0.27577,0.17789 z m 0.64808,-0.7777 c 0,-0.0269 0.10208,-0.12898 0.22683,-0.22683 0.20558,-0.16122 0.21017,-0.15664 0.0489,0.0489 -0.16933,0.2159 -0.27577,0.28458 -0.27577,0.17789 z m 0.7777,-0.90732 c 0,-0.0269 0.10208,-0.12898 0.22683,-0.22683 0.20558,-0.16121 0.21016,-0.15664 0.0489,0.049 -0.16933,0.2159 -0.27577,0.28457 -0.27577,0.17788 z m 0.7777,-0.90731 c 0,-0.0269 0.10207,-0.12898 0.22683,-0.22683 0.20558,-0.16122 0.21016,-0.15664 0.0489,0.0489 -0.16933,0.2159 -0.27577,0.28457 -0.27577,0.17789 z m 1.10174,-1.24722 c 0.12903,-0.14258 0.26377,-0.25924 0.29941,-0.25924 0.0356,0 -0.0408,0.11666 -0.16979,0.25924 -0.12903,0.14257 -0.26377,0.25923 -0.29941,0.25923 -0.0357,0 0.0408,-0.11666 0.16979,-0.25923 z m 1.03693,-1.16655 c 0.12904,-0.14258 0.26377,-0.25924 0.29941,-0.25924 0.0356,0 -0.0408,0.11666 -0.16979,0.25924 -0.12903,0.14258 -0.26377,0.25923 -0.29941,0.25923 -0.0356,0 0.0408,-0.11665 0.16979,-0.25923 z m 1.23136,-1.36098 c 0.16743,-0.17822 0.33358,-0.32404 0.36923,-0.32404 0.0356,0 -0.0722,0.14582 -0.23961,0.32404 -0.16744,0.17823 -0.33359,0.32405 -0.36923,0.32405 -0.0356,0 0.0722,-0.14582 0.23961,-0.32405 z m 1.74982,-1.87944 c 0.27845,-0.28515 0.53544,-0.51846 0.57108,-0.51846 0.0356,0 -0.16301,0.23331 -0.44146,0.51846 -0.27845,0.28516 -0.53543,0.51847 -0.57108,0.51847 -0.0356,0 0.16302,-0.23331 0.44146,-0.51847 z m 3.56446,-3.69407 c 0.6028,-0.60595 1.12518,-1.10174 1.16082,-1.10174 0.0356,0 -0.4284,0.49579 -1.03121,1.10174 -0.60281,0.60596 -1.12518,1.10174 -1.16082,1.10174 -0.0356,0 0.4284,-0.49578 1.03121,-1.10174 z m 3.69407,-3.56445 c 0.27844,-0.28516 0.53543,-0.51847 0.57107,-0.51847 0.0356,0 -0.16301,0.23331 -0.44146,0.51847 -0.27844,0.28516 -0.53543,0.51847 -0.57107,0.51847 -0.0357,0 0.16301,-0.23331 0.44146,-0.51847 z m 1.49059,-1.33672 c 0,-0.0223 0.18956,-0.21187 0.42125,-0.42125 l 0.42125,-0.3807 -0.38069,0.42125 c -0.35486,0.39268 -0.46181,0.48084 -0.46181,0.3807 z m -33.18183,-1.30455 c 0,-0.0269 0.10208,-0.12898 0.22683,-0.22683 0.20558,-0.16122 0.21017,-0.15664 0.0489,0.0489 -0.16933,0.2159 -0.27577,0.28458 -0.27577,0.17789 z m 34.86684,-0.2751 c 0.16743,-0.17822 0.33359,-0.32404 0.36923,-0.32404 0.0356,0 -0.0722,0.14582 -0.23961,0.32404 -0.16744,0.17822 -0.33359,0.32404 -0.36923,0.32404 -0.0356,0 0.0722,-0.14582 0.23961,-0.32404 z m 1.03693,-0.89145 c 0,-0.0269 0.10208,-0.12898 0.22683,-0.22683 0.20558,-0.16122 0.21017,-0.15664 0.0489,0.0489 -0.16933,0.21591 -0.27577,0.28458 -0.27577,0.17789 z m -34.73722,-0.25923 c 0,-0.0269 0.10207,-0.12898 0.22683,-0.22683 0.20558,-0.16122 0.21016,-0.15664 0.0489,0.0489 -0.16933,0.2159 -0.27577,0.28457 -0.27577,0.17789 z m 35.77415,-0.64809 c 0,-0.0269 0.10208,-0.12898 0.22683,-0.22682 0.20558,-0.16122 0.21017,-0.15665 0.0489,0.0489 -0.16933,0.2159 -0.27577,0.28457 -0.27577,0.17788 z m -35.12607,-0.12961 c 0,-0.0269 0.10208,-0.12898 0.22683,-0.22683 0.20558,-0.16122 0.21017,-0.15664 0.0489,0.0489 -0.16933,0.2159 -0.27577,0.28457 -0.27577,0.17789 z m 36.03339,-0.64809 c 0,-0.0269 0.10207,-0.12898 0.22683,-0.22682 0.20558,-0.16122 0.21016,-0.15665 0.0489,0.0489 -0.16933,0.2159 -0.27577,0.28457 -0.27577,0.17788 z m -35.3853,-0.12961 c 0,-0.0269 0.10207,-0.12898 0.22683,-0.22683 0.20557,-0.16122 0.21016,-0.15664 0.0489,0.0489 -0.16932,0.2159 -0.27576,0.28458 -0.27576,0.17789 z m 36.163,-0.51847 c 0,-0.0269 0.10207,-0.12898 0.22683,-0.22683 0.20558,-0.16121 0.21016,-0.15664 0.0489,0.0489 -0.16933,0.2159 -0.27577,0.28457 -0.27577,0.17788 z m -35.3853,-0.38885 c 0,-0.0269 0.10207,-0.12898 0.22682,-0.22683 0.20558,-0.16121 0.21017,-0.15664 0.0489,0.049 -0.16932,0.2159 -0.27576,0.28457 -0.27576,0.17788 z m 0.77769,-0.907313 c 0,-0.02691 0.10208,-0.128981 0.22683,-0.226828 0.20558,-0.161217 0.21017,-0.156642 0.0489,0.04894 -0.16933,0.215902 -0.27577,0.284573 -0.27577,0.177885 z m 36.16301,0 c 0,-0.02691 0.10207,-0.128981 0.22683,-0.226828 0.20558,-0.161217 0.21016,-0.156642 0.0489,0.04894 -0.16932,0.215902 -0.27576,0.284573 -0.27576,0.177885 z m -35.06127,-1.247221 c 0.12904,-0.142578 0.26377,-0.259233 0.29942,-0.259233 0.0356,0 -0.0408,0.116655 -0.1698,0.259233 -0.12903,0.142578 -0.26377,0.259233 -0.29941,0.259233 -0.0356,0 0.0408,-0.116655 0.16979,-0.259233 z m 1.10174,-1.231357 c 0.16744,-0.178223 0.33359,-0.324041 0.36923,-0.324041 0.0357,0 -0.0722,0.145818 -0.23961,0.324041 -0.16743,0.178223 -0.33358,0.324041 -0.36923,0.324041 -0.0356,0 0.0722,-0.145818 0.23961,-0.324041 z m 1.03694,-1.142297 c 0,-0.02231 0.18956,-0.211871 0.42125,-0.421254 l 0.42125,-0.380696 -0.38069,0.421253 c -0.35486,0.392673 -0.46181,0.480839 -0.46181,0.380697 z m 4.14772,-4.301596 c 1.24604,-1.247559 2.29468,-2.268288 2.33032,-2.268288 0.0356,0 -0.95467,1.020729 -2.2007,2.268288 -1.24603,1.247559 -2.29467,2.268289 -2.33032,2.268289 -0.0356,0 0.95467,-1.02073 2.2007,-2.268289 z m 3.62927,-3.475394 c 0,-0.02231 0.18956,-0.211871 0.42125,-0.421254 l 0.42125,-0.380696 -0.38069,0.421253 c -0.35486,0.392674 -0.46181,0.480839 -0.46181,0.380697 z M 539.607,87.84353 c 0,-0.02691 0.10208,-0.128981 0.22683,-0.226829 0.20559,-0.161217 0.21016,-0.156642 0.0489,0.04894 -0.16934,0.215902 -0.27578,0.284573 -0.27578,0.177886 z m 0.64809,-0.777699 c 0,-0.02691 0.10207,-0.128981 0.22682,-0.226829 0.20559,-0.161217 0.21016,-0.156641 0.0489,0.04894 -0.16933,0.215902 -0.27577,0.284573 -0.27577,0.177886 z M 407.39818,86.661116 c 0.16743,-0.178222 0.33358,-0.324041 0.36923,-0.324041 0.0356,0 -0.0722,0.145819 -0.23962,0.324041 -0.16743,0.178223 -0.33358,0.324042 -0.36923,0.324042 -0.0356,0 0.0722,-0.145819 0.23962,-0.324042 z m 133.6346,-0.502601 c 0,-0.02691 0.10208,-0.128981 0.22683,-0.226828 0.20559,-0.161217 0.21016,-0.156642 0.049,0.04894 -0.16933,0.215902 -0.27578,0.284573 -0.27578,0.177885 z M 408.62953,85.559376 c 0.12904,-0.142578 0.26377,-0.259233 0.29942,-0.259233 0.0356,0 -0.0408,0.116655 -0.1698,0.259233 -0.12903,0.142578 -0.26377,0.259233 -0.29941,0.259233 -0.0357,0 0.0408,-0.116655 0.16979,-0.259233 z M 541.81048,85.2512 c 0,-0.02691 0.10208,-0.128981 0.22683,-0.226829 0.20559,-0.161217 0.21016,-0.156641 0.0489,0.04894 -0.16934,0.215902 -0.27578,0.284573 -0.27578,0.177886 z M 409.66647,84.652061 c 0.12903,-0.142578 0.26376,-0.259233 0.29941,-0.259233 0.0356,0 -0.0408,0.116655 -0.1698,0.259233 -0.12903,0.142578 -0.26376,0.259233 -0.29941,0.259233 -0.0356,0 0.0408,-0.116655 0.1698,-0.259233 z m 132.92171,-0.308177 c 0,-0.02691 0.10208,-0.128981 0.22683,-0.226828 0.20559,-0.161217 0.21016,-0.156642 0.0489,0.04894 -0.16933,0.215902 -0.27577,0.284573 -0.27577,0.177885 z M 410.50897,83.955035 c 0,-0.02691 0.10208,-0.128981 0.22683,-0.226829 0.20558,-0.161217 0.21017,-0.156641 0.0489,0.04894 -0.16933,0.215903 -0.27577,0.284573 -0.27577,0.177886 z M 543.4955,83.306953 c 0,-0.02691 0.10207,-0.128982 0.22683,-0.226829 0.20558,-0.161217 0.21016,-0.156642 0.0489,0.04894 -0.16933,0.215902 -0.27577,0.284573 -0.27577,0.177886 z M 411.41629,83.177336 c 0,-0.02691 0.10207,-0.128981 0.22683,-0.226829 0.20558,-0.161217 0.21016,-0.156641 0.0489,0.04894 -0.16933,0.215903 -0.27577,0.284573 -0.27577,0.177886 z m 0.7777,-0.648082 c 0,-0.02691 0.10207,-0.128982 0.22683,-0.226829 0.20558,-0.161217 0.21016,-0.156642 0.0489,0.04894 -0.16932,0.215902 -0.27576,0.284573 -0.27576,0.177886 z m 132.40325,-0.469523 c 0.12903,-0.142578 0.26377,-0.259233 0.29941,-0.259233 0.0357,0 -0.0408,0.116655 -0.1698,0.259233 -0.12903,0.142578 -0.26376,0.259233 -0.29941,0.259233 -0.0356,0 0.0408,-0.116655 0.1698,-0.259233 z m -131.62555,-0.17856 c 0,-0.02691 0.10207,-0.128981 0.22683,-0.226829 0.20558,-0.161217 0.21016,-0.156641 0.0489,0.04894 -0.16932,0.215903 -0.27576,0.284573 -0.27576,0.177886 z m 132.72729,-1.052797 c 0.16742,-0.178223 0.33358,-0.324041 0.36922,-0.324041 0.0356,0 -0.0722,0.145818 -0.2396,0.324041 -0.16743,0.178223 -0.33359,0.324041 -0.36923,0.324041 -0.0356,0 0.0722,-0.145818 0.23961,-0.324041 z M 414.39747,80.714623 c 0,-0.02691 0.10207,-0.128982 0.22683,-0.226829 0.20558,-0.161217 0.21016,-0.156642 0.0489,0.04894 -0.16933,0.215902 -0.27577,0.284573 -0.27577,0.177886 z m 132.20882,-0.89893 c 0,-0.02231 0.18957,-0.211872 0.42126,-0.421255 l 0.42125,-0.380695 -0.3807,0.421254 c -0.35486,0.392673 -0.46181,0.480838 -0.46181,0.380696 z m 1.42579,-1.555399 c 0,-0.02231 0.18956,-0.211871 0.42125,-0.421254 l 0.42125,-0.380695 -0.38069,0.421254 c -0.35487,0.392668 -0.46181,0.480832 -0.46181,0.380695 z m 1.55539,-1.685014 c 0,-0.02231 0.18957,-0.211871 0.42126,-0.421254 l 0.42125,-0.380695 -0.3807,0.421253 c -0.35486,0.392668 -0.46181,0.480832 -0.46181,0.380696 z m 2.20348,-2.357347 c 0.24184,-0.249512 0.46887,-0.453658 0.50451,-0.453658 0.0356,0 -0.13305,0.204146 -0.37489,0.453658 -0.24184,0.249512 -0.46886,0.453657 -0.50451,0.453657 -0.0356,0 0.13306,-0.204145 0.37489,-0.453657 z m 1.74983,-1.879439 c 0.12903,-0.142579 0.26377,-0.259233 0.29941,-0.259233 0.0357,0 -0.0408,0.116654 -0.1698,0.259233 -0.12903,0.142578 -0.26377,0.259233 -0.29941,0.259233 -0.0357,0 0.0408,-0.116655 0.1698,-0.259233 z m 0.56673,-18.243522 c -0.16122,-0.20558 -0.15664,-0.210164 0.0489,-0.04894 0.12475,0.09784 0.22682,0.199914 0.22682,0.226829 0,0.106679 -0.10644,0.03802 -0.27577,-0.177891 z m -62.20224,-7.258524 -1.09888,-1.134144 1.13415,1.098878 c 0.62378,0.604384 1.13414,1.114748 1.13414,1.134144 0,0.09431 -0.1488,-0.04552 -1.16941,-1.098878 z m -2.92166,-3.045988 -0.3807,-0.421253 0.42126,0.380695 c 0.39267,0.354862 0.48083,0.461812 0.38069,0.461812 -0.0223,0 -0.21187,-0.189564 -0.42125,-0.421254 z m -1.42994,-1.555398 -0.24692,-0.291637 0.29163,0.246918 c 0.27407,0.232042 0.35064,0.336357 0.24692,0.336357 -0.0246,0 -0.15583,-0.131237 -0.29163,-0.291638 z m -1.16655,-1.296165 -0.24692,-0.291637 0.29164,0.246918 c 0.27406,0.232043 0.35063,0.336357 0.24692,0.336357 -0.0246,0 -0.15584,-0.131237 -0.29164,-0.291638 z m -0.84673,-0.972123 c -0.16122,-0.20558 -0.15665,-0.210164 0.0489,-0.04894 0.12475,0.09784 0.22683,0.199914 0.22683,0.226829 0,0.106679 -0.10644,0.03802 -0.27577,-0.177891 z m -1.7981,-17.854673 c 0.16743,-0.178222 0.33358,-0.324041 0.36923,-0.324041 0.0356,0 -0.0722,0.145819 -0.23961,0.324041 -0.16743,0.178223 -0.33358,0.324042 -0.36923,0.324042 -0.0356,0 0.0722,-0.145819 0.23961,-0.324042 z m 0.84251,-0.842507 c 0.12903,-0.142578 0.26377,-0.259233 0.29941,-0.259233 0.0357,0 -0.0408,0.116655 -0.16979,0.259233 -0.12904,0.142578 -0.26377,0.259233 -0.29942,0.259233 -0.0356,0 0.0408,-0.116655 0.1698,-0.259233 z"
             id="path6602" /><path
             style="fill:#ffffff;fill-opacity:1;stroke-width:0.129616"
             d="m 370.78152,190.5943 c -1.69221,-0.35243 -3.16109,-1.09203 -4.06324,-2.04593 -0.4948,-0.52317 -0.95443,-1.29724 -1.93791,-3.26364 -2.3263,-4.65127 -2.49282,-5.09991 -2.83309,-7.63283 -0.48012,-3.57397 -0.63676,-7.05769 -0.46043,-10.24003 0.56418,-10.18199 2.12748,-16.97542 5.99723,-26.06145 1.16524,-2.73594 4.25087,-8.87895 5.92023,-11.78624 5.34839,-9.31457 12.60903,-19.58918 20.05919,-28.38602 10.30641,-12.169352 23.56176,-23.584699 37.13603,-31.981091 6.18395,-3.825095 13.81994,-7.728941 20.68727,-10.576226 12.4045,-5.143062 24.81842,-8.238631 38.53315,-9.60872 1.45253,-0.145107 2.9249,-0.263832 3.27189,-0.263832 0.34701,0 0.63092,-0.03749 0.63092,-0.0833 0,-0.04582 -1.09364,-1.198177 -2.43031,-2.5608 -2.80715,-2.86166 -5.55417,-5.91089 -6.66762,-7.401176 -1.07231,-1.435209 -2.64506,-4.301252 -3.09015,-5.631209 -1.34843,-4.029217 -0.35977,-8.237814 2.6532,-11.294209 1.4884,-1.509847 3.0899,-2.43732 5.19273,-3.007241 0.83537,-0.226407 1.38967,-0.280554 2.85156,-0.278559 1.88599,0.0026 2.71885,0.149409 4.04429,0.713025 0.58744,0.249806 0.99662,0.477383 3.45365,1.92088 0.55941,0.328653 2.07593,1.462242 3.37003,2.519084 3.81789,3.11792 11.55811,8.79566 15.76822,11.566581 4.99317,3.286294 9.89534,6.093309 15.6836,8.980527 5.46279,2.724878 8.70547,4.12155 12.89684,5.554871 3.58353,1.225462 5.81989,2.891919 7.68399,5.72587 3.11682,4.738424 2.93718,10.73144 -0.46479,15.504887 -0.35566,0.499024 -1.74084,2.073864 -3.0782,3.499646 -5.16751,5.509167 -9.26864,10.123696 -12.49875,14.06339 -4.72232,5.759716 -9.08461,12.531712 -12.10672,18.794392 -1.11376,2.30801 -3.32596,7.75907 -4.41859,10.88778 -0.89487,2.56247 -1.53736,3.92421 -2.38497,5.05505 -0.34733,0.46338 -0.77861,1.20874 -0.9584,1.65634 -1.31446,3.27256 -4.27379,5.88513 -7.67734,6.77778 -1.5616,0.40956 -3.74429,0.38914 -5.41385,-0.0507 -3.18286,-0.83842 -5.60657,-2.71034 -6.86403,-5.30137 -0.82045,-1.69057 -1.22077,-2.93289 -1.51943,-4.71532 -0.14214,-0.84832 -0.40026,-1.97984 -0.57358,-2.51451 -0.67187,-2.0725 -0.68373,-3.37398 -0.0721,-7.90661 0.76167,-5.64434 1.28997,-7.57031 3.46839,-12.644266 3.29708,-7.679596 7.7581,-15.121138 13.86578,-23.129883 l 1.43332,-1.879439 -6.30999,-0.166874 c -14.31424,-0.378558 -21.06678,0.200975 -31.50126,2.703577 -6.38552,1.531499 -14.26187,4.145974 -19.20083,6.373511 -10.15043,4.57799 -20.92446,11.259889 -28.92136,17.936624 -11.24632,9.38972 -21.85185,20.84397 -29.628,31.99905 -5.46684,7.84232 -10.63987,16.86937 -14.07566,24.56233 -2.81466,6.30221 -5.148,14.35408 -5.60701,19.34865 -0.22489,2.44707 -0.30155,2.8237 -0.9755,4.79246 -0.28675,0.83767 -0.68937,2.30558 -0.89471,3.262 -0.20534,0.95644 -0.53332,2.07923 -0.72885,2.49508 -0.723,1.53768 -2.75216,3.10723 -4.65932,3.60399 -0.70622,0.18395 -1.98011,0.24014 -2.58555,0.11405 z"
             id="path6604" /></g></g></g></g></svg>
